<?xml version="1.0" standalone="no"?>
<!DOCTYPE svg PUBLIC "-//W3C//DTD SVG 20010904//EN"
 "http://www.w3.org/TR/2001/REC-SVG-20010904/DTD/svg10.dtd">
<svg version="1.0" xmlns="http://www.w3.org/2000/svg"
 width="150.000000pt" height="150.000000pt" viewBox="0 0 150.000000 150.000000"
 preserveAspectRatio="xMidYMid meet">
<metadata>
Created by potrace 1.14, written by Peter Selinger 2001-2017
</metadata>
<g transform="translate(0.000000,150.000000) scale(0.100000,-0.100000)"
fill="#000000" stroke="none">
<path d="M605 1465 c-104 -22 -231 -80 -295 -135 -159 -135 -234 -263 -276
-465 -10 -49 -4 -208 11 -270 40 -173 152 -340 293 -437 229 -158 545 -170
782 -29 215 128 345 345 355 591 6 152 -18 254 -89 387 -86 163 -235 281 -431
345 -76 24 -264 32 -350 13z"/>
</g>
</svg>
