<?xml version="1.0" standalone="no"?>
<!DOCTYPE svg PUBLIC "-//W3C//DTD SVG 20010904//EN"
 "http://www.w3.org/TR/2001/REC-SVG-20010904/DTD/svg10.dtd">
<svg version="1.0" xmlns="http://www.w3.org/2000/svg"
 width="800.000000pt" height="800.000000pt" viewBox="0 0 800.000000 800.000000"
 preserveAspectRatio="xMidYMid meet">
<metadata>
Created by potrace 1.11, written by Peter Selinger 2001-2013
</metadata>
<g transform="translate(0.000000,800.000000) scale(0.100000,-0.100000)"
fill="#000000" stroke="none">
<path d="M4086 7839 c-32 -5 -106 -20 -164 -34 -89 -21 -111 -24 -140 -14 -68
23 -148 0 -424 -120 -64 -28 -123 -51 -130 -51 -19 0 -82 -38 -175 -106 -45
-32 -102 -72 -127 -87 -93 -58 -242 -207 -390 -391 -252 -313 -356 -598 -373
-1018 l-6 -158 -101 -84 c-301 -250 -573 -599 -756 -971 -131 -266 -205 -482
-261 -759 -176 -870 47 -1770 612 -2476 108 -135 337 -366 459 -462 484 -382
1000 -591 1605 -649 159 -15 565 -6 705 16 546 86 982 267 1408 584 175 130
436 392 569 571 334 449 515 889 600 1455 26 180 24 600 -4 785 -80 511 -251
940 -535 1343 -73 103 -209 269 -285 348 l-44 46 11 126 c19 210 -10 402 -96
636 -88 239 -316 644 -455 807 -103 122 -317 309 -469 411 -146 98 -261 147
-388 164 -43 6 -126 23 -187 39 -211 56 -325 68 -459 49z m-556 -313 c0 -2
-35 -32 -77 -67 l-77 -64 64 -9 c93 -12 100 -12 259 13 158 25 184 21 127 -22
-72 -55 -95 -97 -28 -52 20 14 44 28 52 32 29 12 260 155 266 164 14 23 94 -1
94 -27 0 -33 -103 -133 -190 -184 -131 -78 -374 -141 -595 -155 l-90 -6 45 27
c75 45 162 92 220 121 30 16 62 34 70 42 16 16 26 18 -125 -28 -55 -16 -134
-40 -175 -52 -41 -12 -80 -26 -86 -30 -6 -5 -13 -6 -17 -3 -3 3 14 27 39 52
24 26 40 48 35 50 -4 1 -37 -10 -72 -26 -97 -45 -159 -66 -167 -58 -18 18 188
166 335 241 92 47 93 47 93 41z m1015 -89 c4 -34 5 -67 3 -73 -6 -24 15 -15
90 34 94 62 112 70 112 49 0 -9 -4 -19 -10 -22 -5 -3 -10 -14 -10 -24 0 -16
14 -19 113 -24 61 -4 131 -7 155 -7 40 0 42 1 42 31 0 17 3 29 8 27 4 -2 34
-17 67 -33 75 -36 94 -38 88 -11 -4 19 -3 19 17 -4 31 -37 90 -124 90 -133 0
-5 -17 5 -37 22 -21 17 -43 31 -49 31 -6 0 -18 -27 -27 -60 -10 -33 -21 -60
-26 -60 -5 0 -15 17 -21 38 -16 48 -26 59 -34 35 -3 -10 -28 -41 -56 -68 l-50
-49 0 45 c0 25 -5 60 -11 78 -11 30 -13 31 -67 30 -32 0 -95 -4 -142 -8 -79
-7 -94 -13 -209 -74 -69 -37 -126 -65 -129 -62 -2 2 8 17 24 33 62 63 104 112
96 112 -4 0 -35 -20 -68 -43 -63 -47 -179 -107 -204 -107 -8 0 15 27 51 59 82
74 137 174 153 276 2 17 5 31 5 32 1 1 7 0 15 -3 9 -4 17 -28 21 -67z m-1115
-704 c-68 -70 -140 -168 -140 -190 0 -20 23 -15 50 10 63 58 197 133 297 168
29 10 53 14 53 9 0 -5 -4 -12 -10 -15 -5 -3 -10 -18 -10 -32 0 -24 3 -25 36
-20 19 3 82 24 139 47 128 50 180 60 304 60 97 0 165 -12 177 -31 8 -13 -51
-74 -136 -142 -71 -57 -89 -76 -90 -94 0 -21 43 -15 129 17 45 16 81 27 81 23
0 -7 -50 -68 -103 -128 -20 -22 -37 -48 -37 -57 0 -23 5 -23 43 6 52 38 274
143 284 133 1 -2 -25 -26 -60 -54 -60 -48 -144 -139 -198 -213 -49 -67 -90
-148 -79 -155 6 -4 43 22 83 57 143 126 249 199 405 277 68 34 193 87 181 77
-2 -2 -31 -25 -64 -51 -71 -57 -155 -136 -155 -147 0 -17 33 -7 76 23 25 17
72 42 104 55 63 25 295 88 370 100 l44 6 -32 -37 c-43 -48 -41 -81 5 -79 39 2
202 79 210 100 17 46 52 -41 60 -150 4 -68 2 -90 -17 -139 -12 -31 -33 -71
-47 -87 -34 -41 -25 -62 19 -49 18 5 44 17 58 27 49 36 51 36 44 5 -10 -46
-51 -109 -91 -142 -28 -23 -34 -34 -26 -42 25 -25 133 36 173 96 11 17 20 23
20 15 0 -8 11 -107 24 -220 14 -113 29 -263 35 -335 31 -368 42 -482 56 -615
32 -289 3 -431 -242 -1205 -149 -472 -346 -785 -662 -1054 -276 -236 -487
-366 -686 -423 -70 -20 -102 -23 -250 -22 -450 1 -655 126 -1030 624 -326 433
-456 756 -504 1245 -19 190 -20 208 -27 416 -4 129 -2 278 6 404 7 110 14 259
15 330 3 149 4 152 114 399 119 265 157 394 186 636 29 234 71 350 166 464 5
5 5 -22 2 -61 -9 -115 35 -271 103 -360 40 -53 47 -43 39 60 -8 111 11 221 55
312 l29 60 -3 -41 c-2 -23 1 -72 6 -109 15 -110 39 -135 52 -53 16 101 96 210
193 264 53 30 211 93 233 94 3 0 -24 -30 -60 -67z m-1280 -1090 c-9 -127 -15
-160 -28 -168 -51 -31 -69 -62 -92 -155 -13 -52 -48 -162 -79 -245 l-55 -150
1 -140 c1 -234 50 -421 133 -506 47 -49 102 -69 190 -69 44 0 39 18 60 -205
27 -280 92 -546 182 -748 l40 -89 -36 -35 c-20 -20 -36 -40 -36 -45 0 -5 -5
-6 -10 -3 -6 4 -10 3 -9 -2 2 -4 -4 -20 -11 -35 -10 -21 -20 -28 -43 -28 -47
0 -234 -29 -330 -52 -49 -11 -94 -21 -100 -22 -55 -11 -203 -91 -348 -187
-223 -149 -235 -155 -343 -151 -50 1 -92 4 -93 6 -9 8 -65 249 -83 352 -58
337 -54 747 10 1074 26 131 83 339 116 422 14 35 32 82 40 106 27 78 166 353
217 431 13 20 39 61 57 91 29 47 51 78 89 125 4 6 21 29 37 51 61 84 97 123
107 117 6 -3 7 -1 3 5 -11 17 213 253 313 330 19 15 51 41 70 59 19 18 37 30
39 28 2 -2 -2 -74 -8 -162z m4082 -198 c38 -44 75 -87 82 -95 7 -8 26 -33 42
-55 16 -22 31 -42 35 -45 46 -41 301 -470 314 -530 1 -3 13 -30 27 -60 65
-138 136 -357 182 -560 85 -368 92 -793 21 -1172 -37 -195 -127 -490 -196
-640 -9 -22 -15 -25 -25 -17 -8 6 -11 16 -7 22 3 5 1 7 -4 4 -6 -4 -48 17 -93
47 -96 64 -257 145 -430 216 -120 50 -308 144 -360 180 -29 20 -79 44 -130 62
-34 12 -67 45 -288 281 -34 37 -69 67 -77 67 -12 0 -10 10 10 50 63 124 201
515 230 648 5 26 11 32 23 26 85 -36 95 -37 152 -21 74 22 116 63 125 124 9
62 32 118 119 298 100 205 126 294 126 434 0 75 -34 313 -50 356 -6 16 -9 34
-6 42 3 7 1 12 -4 10 -5 -1 -15 7 -23 17 -12 17 -11 25 6 70 33 86 65 201 78
280 15 89 9 91 121 -39z m-4060 -42 c2 -26 -5 -53 -24 -88 -39 -74 -68 -170
-73 -250 l-6 -70 44 120 c50 141 63 167 71 145 4 -14 46 -449 46 -480 0 -8
-10 -20 -22 -25 -19 -8 -29 -31 -54 -128 -17 -64 -33 -120 -37 -123 -11 -11
-38 56 -40 99 -1 23 1 60 6 82 l7 40 -15 -28 c-36 -63 -27 -194 15 -232 37
-33 63 4 101 140 12 44 26 89 32 100 21 40 36 -69 37 -267 l0 -188 -55 0 c-73
0 -146 36 -178 88 -57 90 -91 253 -91 437 l0 140 55 160 c31 88 64 193 74 233
19 78 54 132 85 132 14 0 20 -9 22 -37z m3842 -335 c29 -75 46 -180 53 -308 9
-187 -7 -256 -106 -450 -80 -158 -131 -284 -131 -323 0 -34 -25 -62 -75 -86
-63 -29 -100 -27 -136 8 l-29 29 15 49 c8 26 31 107 51 178 47 167 44 162 80
132 16 -13 39 -27 51 -31 30 -10 86 16 112 52 25 36 28 64 4 35 -19 -22 -75
-53 -94 -53 -6 0 -22 11 -35 25 -20 22 -23 33 -20 87 2 35 19 117 39 183 19
66 45 164 57 218 16 68 27 97 35 93 7 -2 17 0 23 6 17 17 50 -31 63 -90 6 -30
9 -94 7 -143 -1 -48 0 -85 4 -81 4 4 15 36 24 72 27 105 3 231 -51 275 l-25
21 21 72 c12 40 28 72 35 72 7 0 20 -19 28 -42z m-3482 -2175 l4 -238 41 -115
c22 -63 79 -212 125 -330 107 -268 176 -463 216 -605 128 -455 122 -438 199
-525 130 -150 322 -397 387 -500 31 -48 29 -48 -46 22 -16 15 -59 41 -96 59
-67 31 -135 80 -181 129 -13 14 -47 50 -75 80 -133 140 -265 313 -328 429 -23
42 -78 65 -135 56 -72 -11 -201 -83 -258 -144 -87 -95 -145 -151 -154 -151
-28 0 -323 258 -410 358 l-52 61 72 123 c180 310 281 544 434 1008 53 162 112
327 130 365 32 67 97 155 115 155 5 0 10 -107 12 -237z m2942 60 c80 -87 155
-176 166 -198 20 -41 33 -151 45 -375 16 -282 49 -556 91 -740 25 -111 63
-221 117 -334 l51 -109 -34 -29 c-19 -16 -81 -65 -138 -107 -473 -355 -1044
-556 -1637 -578 -182 -6 -177 -14 -53 86 282 226 433 334 496 356 l47 15 147
303 c321 660 362 749 397 863 28 89 48 216 60 389 6 77 13 169 15 205 3 36 5
128 6 205 0 121 3 144 20 173 11 17 28 32 38 32 11 0 79 -64 166 -157z m-2840
-2 c66 -104 207 -297 318 -433 242 -298 477 -425 823 -444 323 -19 581 81 920
356 210 171 346 313 484 505 l43 60 -6 -155 c-9 -207 -33 -475 -51 -582 -31
-176 -51 -226 -282 -698 -85 -173 -175 -360 -201 -415 -84 -180 -82 -177 -137
-197 -55 -20 -113 -57 -230 -151 -44 -35 -152 -121 -240 -191 l-160 -127 -95
6 c-171 12 -234 22 -245 41 -85 143 -274 397 -420 564 -67 77 -105 167 -165
385 -72 260 -118 398 -260 770 -156 411 -160 425 -160 632 0 89 2 163 4 163 2
0 29 -40 60 -89z m-284 -15 c-10 -25 -38 -105 -61 -178 -104 -329 -226 -649
-320 -843 -52 -107 -168 -319 -204 -373 l-22 -33 -68 82 c-174 207 -374 561
-475 839 l-49 135 102 5 c118 6 123 8 364 166 166 109 233 144 330 174 83 25
319 68 380 69 l42 1 -19 -44z m3530 -272 c52 -29 183 -92 290 -139 107 -47
233 -106 280 -131 101 -54 250 -153 257 -171 6 -15 -96 -210 -179 -343 -129
-205 -272 -383 -456 -564 l-101 -100 -36 80 c-136 296 -180 523 -225 1154 -10
151 -22 286 -26 298 l-7 24 54 -27 c30 -15 97 -51 149 -81z m-3148 -1361 c8
-10 30 -45 48 -78 52 -96 225 -310 350 -436 99 -100 127 -121 201 -157 89 -44
160 -102 124 -102 -37 0 -305 71 -432 114 -234 81 -477 199 -675 329 l-86 58
101 103 c56 57 119 113 140 126 98 58 200 77 229 43z"/>
<path d="M2795 5441 c-37 -10 -115 -45 -136 -63 -35 -29 -59 -82 -59 -133 0
-49 1 -50 18 -28 47 61 259 58 542 -7 192 -44 429 -136 490 -190 41 -36 68
-52 79 -46 13 9 5 28 -43 104 -28 45 -41 60 -48 50 -6 -10 -12 -7 -27 11 -10
13 -23 21 -28 18 -6 -4 -54 18 -106 48 -53 30 -100 55 -106 55 -6 0 -11 5 -11
10 0 6 -4 10 -9 10 -8 0 -185 79 -221 99 -9 5 -54 20 -100 34 -95 29 -189 40
-235 28z m-168 -173 c-3 -8 -6 -5 -6 6 -1 11 2 17 5 13 3 -3 4 -12 1 -19z"/>
<path d="M5052 5203 c-67 -9 -258 -52 -327 -73 -38 -12 -79 -23 -90 -24 -11
-1 -37 -10 -59 -19 -21 -9 -45 -17 -53 -17 -8 0 -39 -25 -69 -56 -53 -55 -69
-94 -39 -94 9 0 82 22 163 50 81 27 206 61 277 75 114 23 146 26 260 21 157
-6 158 -6 247 -43 20 -8 42 -12 49 -8 7 5 10 4 5 -3 -6 -10 31 -38 39 -30 2 2
0 21 -5 43 -12 52 -56 113 -109 150 -41 29 -48 30 -149 31 -59 1 -122 0 -140
-3z"/>
<path d="M2913 5120 c-46 -10 -216 -80 -210 -87 3 -2 47 10 98 27 121 41 252
49 387 26 120 -21 166 -45 282 -150 94 -86 158 -127 196 -125 12 0 3 7 -22 19
-23 10 -90 64 -148 119 -113 108 -148 130 -241 156 -70 19 -281 28 -342 15z"/>
<path d="M2955 4983 c-11 -2 -49 -14 -85 -25 -35 -12 -76 -22 -90 -23 -45 -3
-50 -5 -50 -15 0 -5 20 -10 43 -10 38 0 50 -6 93 -45 60 -56 113 -88 190 -117
52 -20 80 -22 244 -23 102 -1 206 1 233 3 50 5 66 22 20 22 -36 0 -98 39 -158
100 -57 59 -163 115 -244 130 -54 10 -158 12 -196 3z m166 -32 c13 -10 34 -21
46 -25 19 -6 22 -4 17 11 -5 13 -2 12 10 -4 10 -13 23 -23 31 -23 7 0 23 -14
35 -30 18 -25 19 -34 10 -45 -7 -8 -10 -24 -7 -34 3 -12 -1 -22 -10 -25 -8 -3
-11 -11 -7 -17 4 -7 3 -9 -4 -5 -6 3 -14 1 -17 -5 -12 -19 -185 14 -222 43 -6
5 -13 36 -15 68 l-3 59 45 25 c54 31 61 31 91 7z m-167 -38 c-8 -26 -12 -55
-8 -65 11 -35 -20 -16 -80 49 l-28 32 48 15 c82 25 84 24 68 -31z m421 -74
c22 -23 56 -53 75 -68 l36 -26 -106 -1 -106 -1 23 45 c13 25 23 56 23 69 0 32
10 29 55 -18z"/>
<path d="M3130 4905 c0 -17 -36 -39 -55 -31 -20 7 -27 -22 -13 -52 17 -34 59
-47 95 -30 23 11 29 21 31 54 2 28 -2 47 -13 58 -20 20 -45 21 -45 1z"/>
<path d="M4788 4945 c-88 -17 -167 -49 -253 -104 -33 -22 -78 -45 -100 -52
-35 -12 -37 -14 -16 -17 15 -2 69 19 145 57 147 74 225 94 371 95 127 1 156
-9 290 -98 79 -53 125 -73 125 -55 0 5 -5 9 -11 9 -7 0 -50 29 -98 64 -47 35
-111 74 -141 86 -71 29 -206 35 -312 15z"/>
<path d="M4780 4850 c-80 -10 -132 -30 -235 -92 -52 -31 -91 -48 -112 -48 -55
0 -37 -18 25 -25 31 -4 102 -19 157 -33 88 -24 119 -27 255 -27 146 0 159 2
225 28 54 22 89 29 150 30 45 1 80 6 80 12 0 6 -11 10 -25 10 -37 1 -86 23
-161 73 -105 68 -214 91 -359 72z m93 -36 c-3 -8 17 -13 57 -16 38 -3 65 -10
71 -19 12 -20 12 -112 -1 -104 -5 3 -10 0 -10 -8 0 -22 -23 -27 -130 -27 -116
0 -122 4 -128 91 -4 50 -2 59 12 59 9 0 24 9 34 20 13 16 27 20 58 18 26 -2
40 -7 37 -14z m-185 -51 c-1 -27 2 -63 6 -81 9 -38 15 -38 -121 2 -69 21 -71
22 -50 36 21 14 160 89 165 90 1 0 1 -21 0 -47z m432 3 c19 -11 45 -27 57 -36
22 -17 20 -18 -58 -44 -45 -15 -83 -25 -86 -23 -2 3 0 14 6 25 6 12 11 41 11
66 0 50 2 51 70 12z"/>
<path d="M4870 4776 c0 -19 -38 -46 -56 -39 -23 9 -16 -31 9 -55 32 -30 71
-28 96 4 25 32 26 52 5 82 -17 25 -54 30 -54 8z"/>
<path d="M3581 4134 c-72 -60 -112 -190 -81 -263 15 -37 100 -81 100 -52 0 5
-8 12 -18 15 -65 21 -91 120 -52 200 12 25 40 61 62 80 21 19 35 37 29 40 -5
3 -23 -6 -40 -20z"/>
<path d="M4356 4142 c-2 -4 11 -21 31 -36 44 -35 71 -96 79 -173 6 -70 -8
-102 -53 -123 -36 -17 -43 -30 -15 -30 25 0 60 27 77 60 32 62 9 186 -45 253
-34 40 -66 62 -74 49z"/>
<path d="M3640 3823 c0 -5 24 -15 54 -22 38 -8 68 -24 106 -57 72 -61 142 -95
211 -101 69 -7 134 21 218 93 45 38 59 45 83 40 21 -4 28 -2 28 11 0 32 -74 9
-136 -42 -82 -66 -110 -79 -179 -79 -70 -1 -126 24 -195 86 -25 22 -57 46 -72
54 -35 18 -118 30 -118 17z"/>
<path d="M3080 3574 c-6 -14 -10 -32 -10 -40 0 -17 27 -19 33 -1 6 17 80 -21
182 -94 206 -146 370 -200 685 -224 101 -8 261 8 380 37 98 24 260 91 343 141
35 21 65 33 77 30 23 -6 24 -4 10 31 -5 14 -15 26 -21 26 -6 0 -9 -6 -6 -14 7
-17 -251 -147 -348 -174 -155 -44 -178 -47 -370 -47 -210 1 -296 13 -449 65
-103 34 -194 82 -286 150 -36 26 -93 62 -127 79 -35 17 -63 38 -63 46 0 24
-20 17 -30 -11z"/>
<path d="M2056 5688 c3 -5 10 -6 15 -3 13 9 11 12 -6 12 -8 0 -12 -4 -9 -9z"/>
<path d="M1889 5543 c-13 -16 -12 -17 4 -4 9 7 17 15 17 17 0 8 -8 3 -21 -13z"/>
</g>
</svg>
